<?xml version="1.0" encoding="UTF-8"?>
<svg width="412px" height="75px" viewBox="0 0 412 75" version="1.1" xmlns="http://www.w3.org/2000/svg" xmlns:xlink="http://www.w3.org/1999/xlink">
    <!-- Generator: Sketch 48.2 (47327) - http://www.bohemiancoding.com/sketch -->
    <title>Slice 1</title>
    <desc>Created with Sketch.</desc>
    <defs></defs>
    <g id="Page-1" stroke="none" stroke-width="1" fill="none" fill-rule="evenodd">
        <path d="M400.405268,51.9206243 C391.128568,51.9206243 385.800764,44.1272926 377.857161,31.4101785 C369.12561,17.4177092 358.254692,0 335.601221,0 C312.938587,0 302.07225,17.4131544 293.326956,31.4101785 C285.392515,44.1227378 280.055549,51.9160695 270.769687,51.9160695 C261.511312,51.9160695 256.174346,44.1227378 248.249067,31.4192882 C239.517516,17.4222641 228.646599,3.23640867e-14 205.974803,3.23640867e-14 C183.303006,3.23640867e-14 172.441251,17.4222641 163.695957,31.4192882 C155.770678,44.1227378 150.433712,51.9160695 141.179918,51.9160695 C131.91238,51.9160695 126.575415,44.1227378 118.645554,31.4192882 C109.918585,17.4177092 99.0522481,3.23640867e-14 76.3941952,3.23640867e-14 C53.7498856,3.23640867e-14 42.88813,17.4131544 34.1519984,31.4101785 C26.222138,44.1272926 20.8851725,51.9206243 11.6038916,51.9206243 C5.19495187,51.9206243 0,57.090368 0,63.4625896 C0,69.8302563 5.19495187,75 11.6038916,75 C34.2665256,75 45.1374434,57.5640714 53.8827371,43.5716021 C61.8080164,30.8681526 67.1404009,23.0793757 76.3941952,23.0793757 C85.6571518,23.0793757 90.9941173,30.8681526 98.9239777,43.5807118 C107.655528,57.5777359 118.521865,75 141.179918,75 C163.828808,75 174.690564,57.5822908 183.426696,43.5898215 C191.356556,30.8681526 196.693522,23.0793757 205.974803,23.0793757 C215.256083,23.0793757 220.579306,30.8681526 228.518328,43.5898215 C237.249879,57.5822908 248.120797,75 270.769687,75 C293.42774,75 304.298658,57.5777359 313.048533,43.5807118 C320.982974,30.8681526 326.315359,23.0793757 335.601221,23.0793757 C344.864177,23.0793757 350.201143,30.8681526 358.121841,43.5807118 C366.857973,57.5640714 377.72889,75 400.400686,75 C406.805045,75 411.999997,69.8302563 411.999997,63.4625896 C412.004578,57.090368 406.814207,51.9206243 400.405268,51.9206243 Z" id="Shape" fill="#348FFF" fill-rule="nonzero"></path>
    </g>
</svg>